<?xml version="1.0" standalone="no"?>
<!DOCTYPE svg PUBLIC "-//W3C//DTD SVG 20010904//EN"
 "http://www.w3.org/TR/2001/REC-SVG-20010904/DTD/svg10.dtd">
<svg version="1.0" xmlns="http://www.w3.org/2000/svg"
 width="1147.000000pt" height="1147.000000pt" viewBox="0 0 1147.000000 1147.000000"
 preserveAspectRatio="xMidYMid meet">
<metadata>
Created by potrace 1.14, written by Peter Selinger 2001-2017
</metadata>
<g transform="translate(0.000000,1147.000000) scale(0.100000,-0.100000)"
fill="#000000" stroke="none">
<path d="M610 11450 c-245 -64 -461 -253 -556 -488 -59 -146 -54 284 -52
-5252 l3 -5075 32 -89 c93 -257 293 -447 547 -520 l88 -26 1213 0 1213 0 88
26 c100 28 206 85 294 156 116 94 209 242 278 438 17 47 105 299 197 560 93
261 180 511 196 555 15 44 52 150 82 235 30 85 91 261 137 390 90 258 127 363
171 487 37 105 85 239 114 323 22 63 66 189 126 358 16 45 42 119 58 165 16
45 43 120 59 167 74 210 238 674 270 765 19 55 48 138 64 185 17 47 43 121 58
165 15 44 110 312 210 595 100 283 210 596 245 695 35 99 91 259 125 355 34
96 70 200 80 230 10 30 39 114 65 185 26 72 53 148 60 170 7 22 32 92 55 155
23 63 48 133 55 155 7 22 34 99 60 170 26 72 55 155 65 185 10 30 46 134 80
230 149 421 149 419 89 476 l-30 29 -667 3 c-367 2 -691 0 -720 -3 -42 -5 -62
-14 -92 -41 -40 -36 -36 -28 -208 -519 -56 -160 -237 -673 -277 -785 -113
-320 -149 -422 -165 -470 -10 -30 -39 -113 -65 -185 -25 -71 -52 -148 -60
-170 -7 -22 -34 -98 -60 -170 -26 -71 -53 -148 -60 -170 -14 -42 -56 -161
-125 -355 -23 -63 -49 -140 -59 -170 -10 -30 -87 -248 -171 -485 -140 -397
-364 -1031 -430 -1220 -15 -44 -57 -163 -93 -265 -36 -102 -95 -270 -131 -375
-37 -104 -80 -227 -97 -273 -35 -99 -77 -217 -117 -332 -16 -47 -43 -123 -60
-170 -17 -47 -69 -197 -117 -335 -91 -264 -131 -348 -198 -430 -85 -101 -156
-150 -279 -192 -72 -24 -98 -28 -198 -28 -102 0 -124 3 -193 29 -133 49 -209
125 -265 263 l-27 68 0 4002 0 4001 30 43 c17 23 48 52 70 63 l40 21 4087 0
4086 0 43 -30 c23 -16 53 -50 66 -74 l23 -44 0 -3931 c0 -3498 -2 -3938 -15
-3991 -57 -218 -256 -374 -477 -375 -126 0 -244 40 -351 118 -57 43 -138 142
-164 201 -15 37 -94 253 -118 326 -8 22 -35 99 -60 170 -26 72 -53 148 -60
170 -7 22 -34 99 -60 170 -25 72 -52 148 -60 170 -7 22 -40 117 -73 210 -33
94 -82 231 -108 305 -494 1407 -533 1515 -564 1542 l-30 28 -759 0 c-753 0
-759 0 -785 -21 -14 -11 -31 -29 -36 -40 -10 -18 -88 -231 -115 -314 -7 -22
-34 -98 -60 -170 -26 -71 -55 -155 -65 -185 -10 -30 -37 -107 -60 -170 -23
-63 -50 -140 -60 -170 -10 -30 -39 -113 -64 -185 -25 -71 -46 -139 -46 -151 0
-34 43 -88 80 -101 25 -8 160 -12 471 -12 l435 -1 26 -27 c15 -16 38 -62 52
-103 23 -70 46 -138 206 -590 34 -96 88 -249 120 -340 32 -91 104 -295 160
-455 56 -159 113 -321 127 -360 13 -38 37 -106 52 -150 16 -44 44 -125 64
-180 256 -734 274 -779 366 -894 105 -132 236 -220 409 -275 l83 -26 1188 0
1189 0 88 26 c254 73 453 263 547 520 l32 89 0 5100 0 5100 -33 88 c-100 268
-310 459 -576 527 -79 20 -103 20 -5125 19 -4957 0 -5047 0 -5121 -19z"/>
</g>
</svg>
