<svg xmlns="http://www.w3.org/2000/svg" viewBox="0 0 1061.67 226.59" fill="#fff"><path d="M282.27 168.88h-20.73l37.74-107.21h23.97l37.79 107.21h-20.73l-28.63-85.22h-.84l-28.58 85.22zm.68-42.04h56.53v15.6h-56.53v-15.6z"/><path d="M358.61 168.88V61.67h40.2c8.23 0 15.15 1.43 20.76 4.3 5.6 2.86 9.84 6.86 12.72 12.01 2.88 5.14 4.31 11.14 4.31 17.98s-1.46 12.83-4.37 17.88c-2.91 5.05-7.19 8.94-12.84 11.68-5.66 2.73-12.6 4.11-20.83 4.11h-28.64v-16.12h26.01c4.82 0 8.76-.68 11.83-2.02 3.06-1.34 5.35-3.31 6.83-5.91 1.49-2.61 2.22-5.8 2.22-9.61s-.75-7.06-2.25-9.76-3.78-4.76-6.86-6.17c-3.06-1.42-7.03-2.13-11.88-2.13h-17.8v90.98H358.6zm55.38-48.58l26.54 48.58h-21.67l-26.07-48.58H414zm121.09-22.46h-19.57c-.57-3.21-1.59-6.06-3.09-8.55-1.5-2.5-3.36-4.62-5.6-6.36-2.24-1.75-4.78-3.06-7.61-3.96-2.85-.89-5.9-1.33-9.19-1.33-5.83 0-10.99 1.46-15.5 4.37-4.49 2.91-8.02 7.17-10.57 12.77-2.54 5.59-3.81 12.43-3.81 20.49s1.28 15.1 3.84 20.7c2.57 5.6 6.1 9.82 10.57 12.67 4.49 2.85 9.63 4.27 15.42 4.27 3.2 0 6.22-.43 9.03-1.28 2.81-.86 5.33-2.12 7.58-3.79s4.16-3.74 5.71-6.18c1.56-2.44 2.63-5.23 3.23-8.37l19.57.11c-.74 5.09-2.31 9.87-4.73 14.34-2.43 4.47-5.6 8.4-9.51 11.8-3.9 3.4-8.49 6.05-13.71 7.95-5.24 1.91-11.05 2.85-17.44 2.85-9.42 0-17.83-2.18-25.23-6.54-7.39-4.36-13.22-10.66-17.48-18.9-4.25-8.23-6.38-18.11-6.38-29.62s2.15-21.44 6.44-29.65c4.28-8.22 10.14-14.51 17.53-18.87 7.4-4.36 15.77-6.55 25.13-6.55 5.98 0 11.52.84 16.66 2.52 5.12 1.67 9.7 4.12 13.71 7.35 4.01 3.23 7.31 7.17 9.91 11.83 2.6 4.66 4.31 9.97 5.11 15.93z"/><path d="M531.83 168.88V61.67h19.42v45.39h49.68V61.67h19.48v107.21h-19.48v-45.54h-49.68v45.54h-19.42zm92.57 0V61.67h41.05c7.75 0 14.19 1.22 19.34 3.64 5.14 2.43 9 5.73 11.56 9.92s3.84 8.94 3.84 14.24c0 4.36-.84 8.09-2.51 11.17-1.68 3.09-3.93 5.59-6.76 7.52-2.82 1.91-5.98 3.3-9.48 4.13v1.05c3.81.21 7.46 1.37 10.96 3.48 3.51 2.12 6.38 5.09 8.62 8.93 2.24 3.84 3.35 8.48 3.35 13.92s-1.35 10.54-4.02 14.94c-2.69 4.42-6.74 7.9-12.15 10.45-5.41 2.55-12.21 3.82-20.41 3.82h-43.4zm19.41-61.62h19.21c3.35 0 6.37-.62 9.06-1.85 2.69-1.24 4.81-3 6.37-5.29 1.55-2.29 2.33-5 2.33-8.14 0-4.15-1.46-7.58-4.37-10.27-2.91-2.69-7.24-4.03-12.96-4.03h-19.63v29.58zm0 45.39h20.89c7.04 0 12.13-1.35 15.26-4.06 3.12-2.7 4.69-6.19 4.69-10.45 0-3.18-.78-6.04-2.36-8.61-1.58-2.56-3.8-4.59-6.7-6.07-2.9-1.49-6.35-2.23-10.36-2.23h-21.42v31.41zm158.11-37.37c0 11.55-2.16 21.43-6.47 29.65-4.31 8.22-10.17 14.51-17.59 18.87-7.42 4.36-15.81 6.54-25.2 6.54s-17.8-2.19-25.22-6.57c-7.4-4.38-13.28-10.68-17.59-18.89-4.31-8.22-6.46-18.09-6.46-29.6s2.15-21.44 6.46-29.65c4.31-8.22 10.18-14.51 17.59-18.87 7.42-4.36 15.83-6.55 25.22-6.55s17.78 2.19 25.2 6.55c7.42 4.36 13.28 10.65 17.59 18.87 4.31 8.22 6.47 18.1 6.47 29.65zm-19.54 0c0-8.13-1.26-15-3.78-20.6-2.54-5.6-6.04-9.84-10.5-12.72-4.48-2.88-9.61-4.32-15.44-4.32s-10.98 1.43-15.45 4.32c-4.46 2.88-7.96 7.12-10.48 12.72-2.54 5.59-3.8 12.47-3.8 20.6s1.26 15 3.8 20.6c2.52 5.6 6.02 9.84 10.48 12.72 4.48 2.88 9.63 4.32 15.45 4.32s10.96-1.44 15.44-4.32c4.46-2.88 7.96-7.12 10.5-12.72 2.52-5.6 3.78-12.47 3.78-20.6zm29.53 53.6h-20.73l37.74-107.21h23.97l37.79 107.21h-20.73l-28.63-85.22h-.84l-28.58 85.22zm.68-42.04h56.53v15.6h-56.53v-15.6z"/><path d="M888.25 168.88V61.67h40.2c8.23 0 15.15 1.43 20.76 4.3 5.6 2.86 9.84 6.86 12.72 12.01 2.88 5.14 4.31 11.14 4.31 17.98s-1.46 12.83-4.37 17.88c-2.91 5.05-7.19 8.94-12.84 11.68-5.66 2.73-12.6 4.11-20.83 4.11h-28.64v-16.12h26.01c4.82 0 8.76-.68 11.83-2.02 3.06-1.34 5.35-3.31 6.83-5.91 1.49-2.61 2.22-5.8 2.22-9.61s-.75-7.06-2.25-9.76-3.78-4.76-6.86-6.17c-3.06-1.42-7.03-2.13-11.88-2.13h-17.8v90.98h-19.42zm55.38-48.58l26.54 48.58H948.5l-26.07-48.58h21.21zm66 48.58H973.3V61.67h37.07c10.65 0 19.79 2.14 27.45 6.41 7.66 4.28 13.55 10.41 17.66 18.41 4.12 7.99 6.19 17.55 6.19 28.69s-2.07 20.76-6.2 28.79c-4.15 8.03-10.09 14.18-17.86 18.48-7.76 4.29-17.09 6.44-27.98 6.44zm-16.91-16.81h15.96c7.48 0 13.7-1.37 18.7-4.11 4.99-2.74 8.74-6.84 11.25-12.3 2.51-5.46 3.77-12.29 3.77-20.49s-1.26-15.02-3.77-20.44c-2.51-5.43-6.22-9.5-11.13-12.2-4.9-2.7-10.98-4.05-18.23-4.05h-16.55v73.6zM29.66 0H16C7.2 0 0 7.2 0 16v194.59c0 8.84 7.16 16 16 16h42.39c6.79 0 12.84-4.28 15.09-10.69l2.24-6.35 52.8-150c.5-1.41-.55-2.89-2.04-2.89h-26.12c-1.36 0-2.57.86-3.02 2.14L51.92 187.83c-.11.45-1.91 7.36-8.41 9.43-3.15 1-8.38 1.18-11.54-2.4-2.17-2.46-2.31-5.48-2.31-6.59V33.66c0-2.21 1.79-4 4-4h159.26c2.21 0 4 1.79 4 4V187c0 5.48-4.44 9.92-9.92 9.92-4.85 0-9.17-3.06-10.78-7.63l-20.53-58.33a2.164 2.164 0 00-2.04-1.45h-28.38c-.92 0-1.74.58-2.04 1.45l-4.71 13.38-4.2 11.94c-.5 1.41.55 2.89 2.04 2.89h16.29c.92 0 1.74.58 2.04 1.45l14.69 41.74 4.76 13.54c2.25 6.4 8.3 10.69 15.09 10.69h41.35c8.84 0 16-7.16 16-16V16c0-8.84-7.16-16-16-16H29.66z"/></svg>