<svg xmlns="http://www.w3.org/2000/svg" viewBox="0 0 1251.61 226.59" fill="currentColor"><path d="M310.62 166.9H289.9l37.74-107.21h24l37.75 107.21h-20.72L340 81.68h-.84zm.68-42h56.53v15.61H311.3zM408.1 166.9V59.69h40.21q12.35 0 20.75 4.3a29.56 29.56 0 0112.73 12 36.19 36.19 0 014.31 18 35.17 35.17 0 01-4.37 17.88 29 29 0 01-12.85 11.67q-8.49 4.11-20.83 4.11h-28.64v-16.13h26a29.8 29.8 0 0011.83-2 14 14 0 006.83-5.91 19.08 19.08 0 002.25-9.61 19.73 19.73 0 00-2.26-9.76A14.47 14.47 0 00457.2 78c-3.06-1.42-7-2.12-11.88-2.12h-17.8v91zm55.39-48.58L490 166.9h-21.64l-26.07-48.58zM600.33 95.86h-19.57a24.89 24.89 0 00-3.1-8.55 22.83 22.83 0 00-5.6-6.36 24 24 0 00-7.61-4 31 31 0 00-9.19-1.33 27.92 27.92 0 00-15.5 4.38 29.22 29.22 0 00-10.58 12.78q-3.79 8.39-3.81 20.49 0 12.3 3.84 20.7a28.69 28.69 0 0010.58 12.67 28.13 28.13 0 0015.42 4.27 30.75 30.75 0 009-1.29 24.62 24.62 0 007.58-3.79 23.11 23.11 0 005.71-6.18 23.58 23.58 0 003.23-8.37l19.57.1a42.47 42.47 0 01-14.24 26.15 43.18 43.18 0 01-13.71 7.95 50.68 50.68 0 01-17.44 2.85 48.66 48.66 0 01-25.23-6.54 45.7 45.7 0 01-17.48-18.9q-6.37-12.34-6.39-29.62t6.45-29.65a46 46 0 0117.52-18.88 48.57 48.57 0 0125.13-6.54 53.56 53.56 0 0116.66 2.51 43 43 0 0113.71 7.35 40.12 40.12 0 019.91 11.84 44.48 44.48 0 015.14 15.96zM622.75 166.9V59.69h19.42v45.39h49.68V59.69h19.48V166.9h-19.48v-45.54h-49.68v45.54zM737 166.9V59.69h41q11.63 0 19.34 3.64A26.26 26.26 0 01809 73.25a26.77 26.77 0 013.84 14.24 23.16 23.16 0 01-2.51 11.17 21 21 0 01-6.76 7.52 28.23 28.23 0 01-9.47 4.13v1a23.49 23.49 0 0111 3.48 24.66 24.66 0 018.62 8.93 27.13 27.13 0 013.28 13.97 28.29 28.29 0 01-4 14.94 27.44 27.44 0 01-12.15 10.45q-8.12 3.81-20.41 3.82zm19.42-61.61h19.21a21.39 21.39 0 009.06-1.86 15.31 15.31 0 006.31-5.28 14.19 14.19 0 002.37-8.15A13.34 13.34 0 00789 79.74c-2.91-2.69-7.24-4-13-4h-19.59zm0 45.38h20.88q10.58 0 15.26-4a13.18 13.18 0 004.69-10.45 16.1 16.1 0 00-2.36-8.61 16.46 16.46 0 00-6.7-6.07 22.4 22.4 0 00-10.36-2.23h-21.42zM934.24 113.3q0 17.33-6.47 29.65a46.15 46.15 0 01-17.58 18.87 51.76 51.76 0 01-50.42 0 46.29 46.29 0 01-17.59-18.89q-6.46-12.33-6.46-29.6t6.46-29.65a46.2 46.2 0 0117.59-18.88 51.86 51.86 0 0150.42 0 46.18 46.18 0 0117.58 18.88q6.47 12.32 6.47 29.62zm-19.53 0q0-12.19-3.79-20.6a28.79 28.79 0 00-10.5-12.7 29.77 29.77 0 00-30.89 0 28.62 28.62 0 00-10.48 12.7q-3.81 8.4-3.8 20.6t3.8 20.6a28.68 28.68 0 0010.48 12.72 29.77 29.77 0 0030.89 0 28.85 28.85 0 0010.5-12.72q3.78-8.4 3.79-20.6zM965.3 166.9h-20.72l37.74-107.21h24l37.78 107.21h-20.72l-28.66-85.22h-.84zm.68-42h56.53v15.61H966zM1062.79 166.9V59.69H1103q12.35 0 20.76 4.3a29.59 29.59 0 0112.72 12 36.19 36.19 0 014.31 18 35.17 35.17 0 01-4.37 17.88 29.07 29.07 0 01-12.84 11.67q-8.5 4.11-20.83 4.11h-28.65v-16.13h26a29.8 29.8 0 0011.83-2 14.07 14.07 0 006.84-5.91A19.19 19.19 0 001121 94a19.83 19.83 0 00-2.25-9.76 14.54 14.54 0 00-6.87-6.18c-3.06-1.42-7-2.12-11.88-2.12h-17.79v91zm55.39-48.58l26.53 48.58H1123l-26-48.58zM1199.57 166.9h-36.32V59.69h37.06q16 0 27.45 6.41a43.27 43.27 0 0117.67 18.41q6.16 12 6.18 28.68t-6.2 28.79a43.24 43.24 0 01-17.86 18.48q-11.64 6.44-27.98 6.44zm-16.91-16.81h16c7.48 0 13.7-1.36 18.7-4.1a26 26 0 0011.25-12.3q3.75-8.19 3.77-20.5t-3.77-20.44a25.83 25.83 0 00-11.13-12.2q-7.35-4-18.24-4h-16.55zM29.66 0H0v226.59h69.72l6-17.04 53.82-152.89H98.09L48.72 196.93H29.66V29.66h167.27v167.27h-18.02l-23.73-67.42h-31.44l-5.22 14.83-5.22 14.84h20.88l15.2 43.19 8.53 24.22H226.59V0H29.66z"/></svg>